<svg id="Layer_1" data-name="Layer 1" xmlns="http://www.w3.org/2000/svg" viewBox="0 0 456.98 67.5"><defs><style>.cls-1,.cls-2{fill:#171719;}.cls-1{fill-rule:evenodd;}</style></defs><title>Untitled-1</title><polygon class="cls-1" points="163.33 67.44 121.46 67.44 121.46 0.03 163.33 0.03 163.33 7.23 130.77 7.23 130.83 26.97 161.2 26.97 161.14 34.26 130.77 34.26 130.77 60.15 163.33 60.15 163.33 67.44"/><polygon class="cls-1" points="298.23 7.32 269.39 7.32 269.39 67.44 260.03 67.44 260.03 7.32 231.2 7.32 231.2 0.04 298.23 0.04 298.23 7.32"/><rect class="cls-2" x="311.73" y="0.03" width="9.42" height="67.41"/><polygon class="cls-1" points="404.34 0 373.53 67.43 366.31 67.43 335.38 0.05 345.52 0.05 369.93 55.61 394.2 0 404.34 0"/><path class="cls-1" d="M240.3,67.5,209.5.06h-7.22L171.34,67.45h10.15l8.22-18.72H222l8.19,18.77ZM192.91,41.44l13-29.56,13.17,29.56Z"/><polygon class="cls-1" points="456.98 67.44 415.11 67.44 415.11 0.03 456.98 0.03 456.98 7.23 424.42 7.23 424.48 26.97 454.85 26.97 454.79 34.26 424.42 34.26 424.42 60.15 456.98 60.15 456.98 67.44"/><path class="cls-1" d="M0,34.7v-17C0,1.15,8.4.38,21.36,0H43.52v7.2H22.24C9.17,7.23,9.34,16.42,9.35,17.8c0,16.34,0,12.24,0,15.81v.18c0,5.29,0,10.58,0,15.88,0,1.38-.18,10.57,12.89,10.57H43.52v7.2H21.36C8.4,67.09,0,65.38,0,49.74Z"/><path class="cls-1" d="M107.53,67.44H96.12L74.62,36.73H69.34V67.44H60V0H81.33c15.6,0,23.4,1.52,23.4,18.13,0,16.27-7,18.49-20.43,18.49ZM95.38,18.16c0-7.76-5.05-11-14.68-11H69.34v22.4H80.7C90.19,29.54,95.38,26.85,95.38,18.16Z"/></svg>