<?xml version="1.0" encoding="UTF-8"?>
<svg width="135px" height="91px" viewBox="0 0 135 91" version="1.1" xmlns="http://www.w3.org/2000/svg" xmlns:xlink="http://www.w3.org/1999/xlink">
    <!-- Generator: Sketch 45.1 (43504) - http://www.bohemiancoding.com/sketch -->
    <title>logo-dh</title>
    <desc>Created with Sketch.</desc>
    <defs></defs>
    <g id="Page-1" stroke="none" stroke-width="1" fill="none" fill-rule="evenodd">
        <g id="Artboard" transform="translate(-975.000000, -719.000000)" fill-rule="nonzero" fill="#F5F5F5">
            <g id="logo-dh" transform="translate(975.000000, 719.000000)">
                <path d="M111.175259,43 C109.303553,43 108.002294,44.3096935 108.000003,46.492516 C107.997712,48.6753386 109.29439,49.9850321 111.166095,50 C112.256587,50 113.601375,49.2516037 114,48.3385602 L114,44.7761939 C113.592211,43.4066287 112.268042,43.0024947 111.175259,43 Z" id="Shape"></path>
                <path d="M123.034091,61.9377903 C127.042364,61.9377903 129.766909,64.748677 129.762,68.8446106 L129.762,69.5817313 L119.767091,69.5669889 C119.901945,70.5437657 120.479909,71.4034416 121.333091,71.8962901 L135,69.4416784 L131.691273,53.3871908 L129.612273,53.3871908 L129.612273,45.8145048 C129.612273,44.0773572 128.630455,43.4802894 127.138091,43.4778324 C124.906909,43.4778324 124.327636,44.5294578 124.072364,45.5958257 L124.072364,53.3798196 L120.535364,53.3798196 L120.555,40.8487688 L124.092,40.8487688 L124.092,41.7308565 C124.956,40.7725996 126.600545,40.6497462 128.799818,40.6522033 L129.069818,40.6522033 L120.69,0 L0,21.5558646 L14.3173636,91 L105.950455,74.6334647 C104.867403,74.3404382 103.858571,73.8212678 102.990273,73.1100821 L104.524364,70.8053515 C105.506182,71.6628686 107.501727,72.5252997 109.170818,72.5252997 C110.702455,72.5252997 111.426545,71.9577168 111.429,71.1812831 C111.429,69.107517 103.439455,70.7807809 103.446818,65.8543579 C103.446818,63.7535641 105.430091,61.9230478 108.964636,61.9230478 C110.907927,61.894616 112.808264,62.4962467 114.381818,63.6380819 L112.958182,65.891214 C112.153091,65.0852954 110.621455,64.4366292 108.979364,64.4317151 C107.698091,64.4317151 106.863545,64.9722702 106.861091,65.6725348 C106.861091,67.5399071 114.823636,65.9968679 114.816273,71.0535155 C114.822123,71.8263794 114.562111,72.5777183 114.079909,73.1813371 L117.430364,72.5818123 C116.50973,71.4193109 116.02356,69.9714662 116.055818,68.4883357 C116.068091,64.8666163 118.942364,61.9304191 123.034091,61.9377903 Z M84.942,44.4213468 C84.942,42.320553 86.9252727,40.4900367 90.4598182,40.4900367 C92.4070074,40.4609001 94.3111702,41.0643756 95.8868182,42.2099849 L94.4631818,44.463117 C93.6580909,43.6571984 92.1264545,43.0085322 90.4843636,43.0060752 C89.2030909,43.0060752 88.3685455,43.5466303 88.3660909,44.2468949 C88.3660909,46.1142672 96.3286364,44.571228 96.3212727,49.6278756 C96.3212727,51.9104925 94.2275455,53.642726 90.4966364,53.6378119 C88.1574545,53.6378119 85.9041818,52.9006912 84.4854545,51.6721568 L86.0195455,49.3674263 C87.0013636,50.2249433 88.9969091,51.0873744 90.666,51.0873744 C92.1976364,51.0873744 92.9217273,50.5197916 92.9241818,49.7433578 C92.9266364,47.6671347 84.9272727,49.3477697 84.942,44.4213468 Z M73.6510909,40.7652284 L83.403,40.7799708 L83.403,43.2370396 L76.7462727,43.2370396 L76.7462727,45.7776488 L83.2630909,45.7776488 L83.2630909,48.2347176 L76.7462727,48.2347176 L76.7462727,50.750756 L83.403,50.750756 L83.403,53.3134788 L73.6510909,53.2987364 L73.6510909,40.7652284 Z M70.0723636,74.6948915 L66.5353636,74.6948915 L66.5353636,67.0779782 C66.5353636,65.3408305 65.5535455,64.7953613 64.0341818,64.7929042 C62.8443317,64.8044402 61.7211072,65.3445743 60.9684545,66.2671455 L60.9561818,74.6948915 L57.4191818,74.6948915 L57.4461818,57.3995842 L60.9831818,57.3995842 L60.9831818,62.8370774 C61.7440909,61.9820175 63.0106364,61.7535101 64.9104545,61.7584242 C67.8559091,61.7584242 70.0870909,63.3776326 70.0821818,65.8150448 L70.0723636,74.6948915 Z M70.9044545,53.2987364 L67.3404545,53.2987364 L67.3404545,52.2274544 C66.2800909,53.4707312 64.935,53.642726 63.1898182,53.6034129 C59.8369091,53.5297008 57.4658182,51.2102279 57.4731818,47.0332109 C57.4731818,42.9372772 60.2860909,40.536721 63.4426364,40.4556378 C65.0282727,40.4163247 66.3021818,40.4556378 67.3699091,41.7357706 L67.3699091,36.000972 L70.9339091,36.000972 L70.9044545,53.2987364 Z M79.2646364,75.0192245 C74.8464545,75.0192245 72.1685455,71.999487 72.1759091,68.4219948 C72.1832727,64.8445026 74.8636364,61.8616211 79.2818182,61.8689923 C83.7,61.8763635 86.4,64.8887299 86.4,68.4391943 C86.4,71.9896587 83.7196364,75.0216816 79.2646364,75.0167675 L79.2646364,75.0192245 Z M100.619182,74.6383789 L97.0821818,74.6383789 L97.0821818,73.7562912 C96.2181818,74.714548 94.5736364,74.8374014 92.3743636,74.8349444 C89.4289091,74.8349444 88.0052727,72.9503726 88.0101818,70.5129604 L88.0224545,62.0999568 L91.5594545,62.0999568 L91.5594545,69.6726428 C91.5594545,71.4097905 92.5412727,72.0068582 94.0336364,72.0093153 C96.2648182,72.0093153 96.8440909,70.9576898 97.0993636,69.891322 L97.0993636,62.107328 L100.636364,62.107328 L100.619182,74.6383789 Z M101.895545,53.3454207 L98.3585455,53.3454207 L98.3781818,40.8143698 L101.915182,40.8143698 L101.895545,53.3454207 Z M100.145455,39.4678961 C99.0040909,39.4678961 98.0296364,38.5833513 98.0320909,37.5022411 C98.0345455,36.4211308 99.0139091,35.5586996 100.150364,35.5611567 C101.286818,35.5636138 102.266182,36.4211308 102.263727,37.5096123 C102.261273,38.5980937 101.306455,39.4678961 100.145455,39.4678961 Z M110.393182,58.4389243 C108.081,58.4389243 106.301455,57.9475105 104.605364,56.5641808 L106.195909,54.1808241 C107.280818,55.2963333 108.699545,55.7410627 110.398091,55.7435198 C112.096636,55.7459769 114.092182,55.0383411 114.097091,52.5812723 L114.097091,51.7409547 C113.036727,52.9842316 111.588545,53.2790798 109.946455,53.2766227 C106.576364,53.2766227 104.018727,51.0652608 104.026091,46.8882439 C104.026091,42.7923102 106.569,40.5146074 109.966091,40.5195215 C111.581182,40.5195215 113.029364,40.5195215 114.111818,41.7996544 L114.111818,40.8364834 L117.675818,40.8364834 L117.658636,52.5051031 C117.653727,57.2816449 113.697,58.4438384 110.385818,58.4389243 L110.393182,58.4389243 Z" id="Shape"></path>
                <path d="M79.5,65 C77.25,65 76,66.6148392 76,68.4822921 C76,70.3497451 77.25,71.9976365 79.4825,71.9999974 C81.715,72.0023583 83,70.3851582 83,68.4917356 C83,66.5983131 81.75,65.0023609 79.5,65 Z" id="Shape"></path>
                <path d="M64.7540297,43 C62.6651531,43.0492882 61,44.6017629 61,46.5 C61,48.3982371 62.6651531,49.9507118 64.7540297,50 C66.0222711,50 67.5893809,49.5632378 68,48.5315346 L68,44.4779089 C67.586782,43.4249578 66.0222711,43 64.7540297,43 Z" id="Shape"></path>
                <path d="M123.505185,64 C121.171852,64 120.178889,65.6530612 120,67 L127,67 C126.911852,65.7169476 125.973333,64.0026619 123.505185,64 Z" id="Shape"></path>
            </g>
        </g>
    </g>
</svg>