<?xml version="1.0" encoding="UTF-8"?>
<svg width="457px" height="68px" viewBox="0 0 457 68" version="1.1" xmlns="http://www.w3.org/2000/svg" xmlns:xlink="http://www.w3.org/1999/xlink">
    <!-- Generator: Sketch 45.1 (43504) - http://www.bohemiancoding.com/sketch -->
    <title>logo-creative</title>
    <desc>Created with Sketch.</desc>
    <defs></defs>
    <g id="Page-1" stroke="none" stroke-width="1" fill="none" fill-rule="evenodd">
        <g id="Artboard" transform="translate(-299.000000, -761.000000)" fill="#F5F5F5">
            <g id="logo-creative" transform="translate(299.000000, 761.000000)">
                <polygon id="Shape" points="163.33 67.44 121.46 67.44 121.46 0.03 163.33 0.03 163.33 7.23 130.77 7.23 130.83 26.97 161.2 26.97 161.14 34.26 130.77 34.26 130.77 60.15 163.33 60.15"></polygon>
                <polygon id="Shape" points="298.23 7.32 269.39 7.32 269.39 67.44 260.03 67.44 260.03 7.32 231.2 7.32 231.2 0.04 298.23 0.04"></polygon>
                <rect id="Rectangle-path" fill-rule="nonzero" x="311.73" y="0.03" width="9.42" height="67.41"></rect>
                <polygon id="Shape" points="404.34 0 373.53 67.43 366.31 67.43 335.38 0.05 345.52 0.05 369.93 55.61 394.2 0"></polygon>
                <path d="M240.3,67.5 L209.5,0.06 L202.28,0.06 L171.34,67.45 L181.49,67.45 L189.71,48.73 L222,48.73 L230.19,67.5 L240.3,67.5 Z M192.91,41.44 L205.91,11.88 L219.08,41.44 L192.91,41.44 Z" id="Shape"></path>
                <polygon id="Shape" points="456.98 67.44 415.11 67.44 415.11 0.03 456.98 0.03 456.98 7.23 424.42 7.23 424.48 26.97 454.85 26.97 454.79 34.26 424.42 34.26 424.42 60.15 456.98 60.15"></polygon>
                <path d="M0,34.7 L0,17.7 C0,1.15 8.4,0.38 21.36,0 L43.52,0 L43.52,7.2 L22.24,7.2 C9.17,7.23 9.34,16.42 9.35,17.8 C9.35,34.14 9.35,30.04 9.35,33.61 L9.35,33.79 C9.35,39.08 9.35,44.37 9.35,49.67 C9.35,51.05 9.17,60.24 22.24,60.24 L43.52,60.24 L43.52,67.44 L21.36,67.44 C8.4,67.09 0,65.38 0,49.74 L0,34.7 Z" id="Shape"></path>
                <path d="M107.53,67.44 L96.12,67.44 L74.62,36.73 L69.34,36.73 L69.34,67.44 L60,67.44 L60,0 L81.33,0 C96.93,0 104.73,1.52 104.73,18.13 C104.73,34.4 97.73,36.62 84.3,36.62 L107.53,67.44 Z M95.38,18.16 C95.38,10.4 90.33,7.16 80.7,7.16 L69.34,7.16 L69.34,29.56 L80.7,29.56 C90.19,29.54 95.38,26.85 95.38,18.16 Z" id="Shape"></path>
            </g>
        </g>
    </g>
</svg>