<svg id="Layer_1" data-name="Layer 1" xmlns="http://www.w3.org/2000/svg" viewBox="0 0 550.03 370.36"><title>dh_logo</title><path d="M452.53,176.84c-8.17,0-13.85,5.25-13.86,14s5.65,14,13.82,14.06c4.76,0,10.63-3,12.37-6.66l0-14.28C463.08,178.47,457.3,176.85,452.53,176.84Z"/><path d="M501.25,252.08c16.33,0,27.43,11.44,27.41,28.11v3l-40.72-.06a13,13,0,0,0,6.38,9.48L550,282.62l-13.48-65.34h-8.47l0-30.82c0-7.07-4-9.5-10.08-9.51-9.09,0-11.45,4.28-12.49,8.62l0,31.68-14.41,0,.08-51,14.41,0v3.59c3.52-3.9,10.22-4.4,19.18-4.39l1.1,0L491.7,0,0,87.73,58.33,370.36l373.32-66.61a32.39,32.39,0,0,1-12.06-6.2l6.25-9.38c4,3.49,12.13,7,18.93,7,6.24,0,9.19-2.31,9.2-5.47,0-8.44-32.55-1.63-32.52-21.68,0-8.55,8.08-16,22.48-16A36.69,36.69,0,0,1,466,259l-5.8,9.17c-3.28-3.28-9.52-5.92-16.21-5.94-5.22,0-8.62,2.2-8.63,5.05,0,7.6,32.44,1.32,32.41,21.9a13.7,13.7,0,0,1-3,8.66l13.65-2.44a25.91,25.91,0,0,1-5.6-16.66C472.87,264,484.58,252.05,501.25,252.08ZM346.06,180.79c0-8.55,8.08-16,22.48-16a36.69,36.69,0,0,1,22.11,7l-5.8,9.17c-3.28-3.28-9.52-5.92-16.21-5.93-5.22,0-8.62,2.2-8.63,5.05,0,7.6,32.44,1.32,32.41,21.9,0,9.29-8.53,16.34-23.73,16.32-9.53,0-18.71-3-24.49-8l6.25-9.38c4,3.49,12.13,7,18.93,7,6.24,0,9.19-2.31,9.2-5.47C378.59,194,346,200.84,346.06,180.79Zm-46-14.88,39.73.06,0,10-27.12,0,0,10.34,26.55,0,0,10-26.55,0,0,10.24,27.12,0,0,10.43-39.73-.06ZM285.48,304l-14.41,0,0-31c0-7.07-4-9.29-10.19-9.3a16.33,16.33,0,0,0-12.49,6l-.05,34.3-14.41,0,.11-70.39,14.41,0,0,22.13c3.1-3.48,8.26-4.41,16-4.39,12,0,21.09,6.59,21.07,16.51Zm3.39-87.08-14.52,0v-4.36c-4.32,5.06-9.8,5.76-16.91,5.6-13.66-.3-23.32-9.74-23.29-26.74,0-16.67,11.46-26.44,24.32-26.77,6.46-.16,11.65,0,16,5.21l0-23.34,14.52,0Zm34.06,88.4c-18,0-28.91-12.29-28.88-26.85S305,251.77,323,251.8s29,12.29,29,26.74S341.08,305.33,322.93,305.31Zm87-1.55-14.41,0v-3.59c-3.52,3.9-10.22,4.4-19.18,4.39-12,0-17.8-7.67-17.78-17.59l.05-34.24,14.41,0,0,30.82c0,7.07,4,9.5,10.08,9.51,9.09,0,11.45-4.28,12.49-8.62l0-31.68,14.41,0Zm5.2-86.66-14.41,0,.08-51,14.41,0ZM408,160.63c-4.65,0-8.62-3.6-8.61-8s4-7.91,8.63-7.9,8.62,3.5,8.61,7.93S412.73,160.63,408,160.63Zm41.75,77.21c-9.42,0-16.67-2-23.58-7.63l6.48-9.7c4.42,4.54,10.2,6.35,17.12,6.36S464.82,224,464.84,214v-3.42c-4.32,5.06-10.22,6.26-16.91,6.25-13.73,0-24.15-9-24.12-26,0-16.67,10.36-25.94,24.2-25.92,6.58,0,12.48,0,16.89,5.21V166.2l14.52,0-.07,47.49C479.33,233.13,463.21,237.86,449.72,237.84Z"/><path d="M323,263.73c-9,0-14,6.84-14,14.75s5,14.89,13.93,14.9S337,286.54,337,278.52,332,263.74,323,263.73Z"/><path d="M261.93,176.55a14.83,14.83,0,0,0,0,29.65c4.88,0,10.91-1.85,12.49-6.22l0-17.17C272.83,178.35,266.81,176.55,261.93,176.55Z"/><path d="M501.24,262.74c-9,0-12.83,6.21-13.52,11.27l27,0C514.38,269.19,510.76,262.75,501.24,262.74Z"/></svg>