<?xml version="1.0" encoding="UTF-8"?>
<svg width="170px" height="170px" viewBox="0 0 170 170" version="1.1" xmlns="http://www.w3.org/2000/svg" xmlns:xlink="http://www.w3.org/1999/xlink">
    <!-- Generator: Sketch 45.1 (43504) - http://www.bohemiancoding.com/sketch -->
    <title>001-facebook-logo</title>
    <desc>Created with Sketch.</desc>
    <defs></defs>
    <g id="icons" stroke="none" stroke-width="1" fill="none" fill-rule="evenodd">
        <g id="001-facebook-logo" fill-rule="nonzero" fill="#000000">
            <path d="M160.477677,9.34148064 C154.251959,3.11421412 146.751048,0 137.980752,0 L31.8422779,0 C23.0719818,0 15.5710706,3.11421412 9.34264237,9.34148064 C3.11537585,15.5699089 0.00116173121,23.0704328 0.00116173121,31.8411162 L0.00116173121,137.978428 C0.00116173121,146.748337 3.11537585,154.249636 9.34264237,160.478064 C15.5710706,166.706492 23.0719818,169.820706 31.8422779,169.820706 L137.97959,169.820706 C146.749886,169.820706 154.250797,166.706492 160.476515,160.478064 C166.704943,154.249636 169.819157,146.748724 169.819157,137.978428 L169.819157,31.8411162 C169.81877,23.0704328 166.704556,15.5687472 160.477677,9.34148064 Z M144.501936,87.3420501 L125.154077,87.3420501 L125.154077,157.546241 L96.1874715,157.546241 L96.1874715,87.3420501 L81.7045558,87.3420501 L81.7045558,63.1284738 L96.1878588,63.1284738 L96.1878588,48.6447836 C96.1878588,38.2519362 98.6209112,30.4028929 103.484692,25.0953303 C108.348087,19.7877677 116.381458,17.1355353 127.587517,17.1355353 L146.935376,17.1355353 L146.935376,41.3483371 L134.775535,41.3483371 C130.646355,41.3483371 128.011549,42.0658998 126.86918,43.5045103 C125.727198,44.9415718 125.154465,47.4660137 125.154465,51.0782232 L125.154465,63.128861 L147.046902,63.128861 L144.501936,87.3420501 Z" id="Shape"></path>
        </g>
    </g>
</svg>